<svg width="26" height="27" viewBox="0 0 26 27" fill="none" xmlns="http://www.w3.org/2000/svg">
<path d="M12.7169 6.263C9.12731 6.263 6.15237 9.26292 6.15237 12.9992C6.14972 13.8847 6.3177 14.7621 6.64666 15.5807C6.97561 16.3993 7.45906 17.1431 8.06916 17.7693C8.67927 18.3955 9.404 18.8916 10.2016 19.2292C10.9993 19.5669 11.8541 19.7393 12.7169 19.7365C16.3574 19.7365 19.2804 16.6844 19.2804 12.9992C19.2804 9.31513 16.3066 6.263 12.7169 6.263ZM12.7169 17.3153C11.6031 17.3101 10.5364 16.8537 9.74882 16.0454C8.96124 15.2371 8.51657 14.1423 8.51155 12.9992C8.51684 11.8563 8.96164 10.7618 9.74919 9.9537C10.5367 9.14563 11.6033 8.6894 12.7169 8.68425C13.8304 8.68969 14.8967 9.14604 15.684 9.95408C16.4713 10.7621 16.916 11.8565 16.9213 12.9992C16.9165 14.1423 16.4721 15.2373 15.6847 16.0458C14.8974 16.8543 13.8307 17.3109 12.7169 17.3164V17.3153ZM19.538 7.63026C19.9323 7.63026 20.3105 7.46947 20.5894 7.18328C20.8683 6.89709 21.0249 6.50893 21.0249 6.10419C21.0249 5.69945 20.8683 5.31129 20.5894 5.0251C20.3105 4.73891 19.9323 4.57812 19.538 4.57812C19.1436 4.57813 18.7654 4.73891 18.4866 5.0251C18.2077 5.31129 18.051 5.69945 18.051 6.10419C18.051 6.50893 18.2077 6.89709 18.4866 7.18328C18.7654 7.46947 19.1436 7.63026 19.538 7.63026Z" fill="#4160EA"/>
<path d="M23.384 2.15803C22.0507 0.736384 20.1537 0 18.0001 0H7.43574C2.97387 0 0 3.05213 0 7.63142V18.4216C0 20.684 0.717502 22.631 2.15357 24.0527C3.5377 25.4199 5.38392 26.1052 7.48661 26.1052H17.9482C20.1526 26.1052 21.9999 25.3688 23.3321 24.0527C24.7173 22.6843 25.4358 20.7362 25.4358 18.4727V7.63142C25.4358 5.42118 24.7173 3.52638 23.384 2.15803ZM23.1784 18.4738C23.1784 20.1053 22.6146 21.4215 21.6915 22.3156C20.7694 23.2108 19.487 23.6839 17.9482 23.6839H7.48767C5.94774 23.6839 4.66641 23.2108 3.7433 22.3156C2.8202 21.3693 2.35811 20.0531 2.35811 18.4216V7.63142C2.35811 6.05314 2.8202 4.737 3.7433 3.7896C4.61448 2.89441 5.94774 2.42126 7.48661 2.42126H18.051C19.5888 2.42126 20.8712 2.89441 21.7943 3.84181C22.6665 4.78921 23.1784 6.10426 23.1784 7.63142V18.4738Z" fill="#4160EA"/>
</svg>
